<?xml version="1.0" encoding="UTF-8" standalone="no"?>
<svg
   xmlns:dc="http://purl.org/dc/elements/1.1/"
   xmlns:cc="http://creativecommons.org/ns#"
   xmlns:rdf="http://www.w3.org/1999/02/22-rdf-syntax-ns#"
   xmlns:svg="http://www.w3.org/2000/svg"
   xmlns="http://www.w3.org/2000/svg"
   viewBox="0 0 1496 1496"
   height="1496"
   width="1496"
   xml:space="preserve"
   id="svg2"
   version="1.1"><metadata
     id="metadata8"><rdf:RDF><cc:Work
         rdf:about=""><dc:format>image/svg+xml</dc:format><dc:type
           rdf:resource="http://purl.org/dc/dcmitype/StillImage" /><dc:title></dc:title></cc:Work></rdf:RDF></metadata><defs
     id="defs6" /><g
     transform="matrix(1.3333333,0,0,-1.3333333,0,1496)"
     id="g10"><g
       transform="scale(0.1)"
       id="g12"><path
         id="path14"
         style="fill:#ffffff;fill-opacity:1;fill-rule:nonzero;stroke:none"
         d="M 11220,0 H 0 V 11220 H 11220 V 0" /><path
         id="path16"
         style="fill:#f6d738;fill-opacity:1;fill-rule:nonzero;stroke:none"
         d="m 2435,5610 c 0,1753.51 1421.49,3175 3175,3175 1753.51,0 3175,-1421.49 3175,-3175 0,-1753.51 -1421.49,-3175 -3175,-3175 -1753.51,0 -3175,1421.49 -3175,3175" /><path
         id="path18"
         style="fill:#f3cc30;fill-opacity:1;fill-rule:nonzero;stroke:none"
         d="m 2915.42,5610 c 0,1488.17 1206.41,2694.58 2694.58,2694.58 1488.17,0 2694.58,-1206.41 2694.58,-2694.58 0,-1488.17 -1206.41,-2694.58 -2694.58,-2694.58 -1488.17,0 -2694.58,1206.41 -2694.58,2694.58" /><path
         id="path20"
         style="fill:#edbd31;fill-opacity:1;fill-rule:nonzero;stroke:none"
         d="m 7019.78,7909.83 c 268.34,-418.92 423.92,-917 423.92,-1451.42 0,-1488.18 -1206.41,-2694.58 -2694.58,-2694.58 -516.84,0 -999.63,145.63 -1409.77,397.92 C 3818.24,3414.12 4656.25,2918.6 5610,2918.6 c 1488.17,0 2694.58,1206.4 2694.58,2694.58 0,971.33 -514.02,1822.5 -1284.8,2296.65" /><path
         id="path22"
         style="fill:#f7db5e;fill-opacity:1;fill-rule:nonzero;stroke:none"
         d="m 3387.44,5363.45 c 0,1313.67 1064.94,2378.61 2378.61,2378.61 767.87,0 1450.62,-363.94 1885.51,-928.64 -410.73,713.05 -1180.57,1193.09 -2062.56,1193.09 -1313.67,0 -2378.61,-1064.94 -2378.61,-2378.61 0,-545.82 183.98,-1048.58 493.12,-1449.98 -201.05,349.01 -316.07,753.83 -316.07,1185.53" /><path
         id="path24"
         style="fill:#d49a34;fill-opacity:1;fill-rule:nonzero;stroke:none"
         d="M 5832.43,7349.18 V 7005.9 c 137.76,-22.19 250.46,-67.74 338.03,-136.62 87.58,-68.9 171.04,-174.57 250.46,-317 l -341.53,-190.92 c -102.76,186.8 -237.05,280.24 -402.83,280.24 -102.77,0 -188.02,-30.37 -255.71,-91.08 -67.73,-60.72 -101.58,-136.61 -101.58,-227.68 0,-82.93 27.42,-151.8 82.31,-206.68 53.69,-53.71 162.28,-117.35 325.76,-190.9 141.26,-64.23 258.04,-124.66 350.29,-181.28 92.22,-56.64 161.71,-111.21 208.42,-163.76 131.94,-142.47 197.92,-314.67 197.92,-516.67 0,-198.51 -59.55,-373.66 -178.65,-525.43 -117.95,-150.62 -275.58,-252.21 -472.89,-304.76 v -362.54 h -306.5 v 352.05 c -228.86,37.38 -403.43,116.16 -523.68,236.43 -120.27,120.26 -209.03,305.91 -266.22,556.96 l 385.32,80.58 c 52.54,-177.51 116.74,-304.19 192.66,-380.07 79.39,-72.41 185.04,-108.6 317.01,-108.6 128.42,0 235.84,41.44 322.26,124.35 85.23,81.72 127.86,187.42 127.86,317.03 0,115.58 -35.63,208.41 -106.84,278.47 -36.21,33.85 -89.62,72.07 -160.27,114.71 -70.64,42.62 -160.85,89.02 -270.59,139.24 -226.53,101.58 -375.41,194.99 -446.61,280.23 -113.27,127.26 -169.89,279.64 -169.89,457.13 0,84.08 13.41,162.29 40.28,234.7 26.85,72.38 65.68,138.05 116.47,197.04 50.79,58.94 113.55,110.03 188.29,153.25 74.71,43.17 159.38,77.06 253.95,101.58 v 343.28 h 306.5" /></g></g></svg>